<svg xmlns="http://www.w3.org/2000/svg" viewBox="0 0 940 800" class="wolf-svg">
  <style>
    .wolf-body { fill: #f5f5f5; stroke: #1a1a1a; stroke-width: 2.5; stroke-linecap: round; stroke-linejoin: round; }
    .wolf-detail { fill: none; stroke: #1a1a1a; stroke-width: 1.5; stroke-linecap: round; }
    .wolf-nose { fill: #1a1a1a; }
    .wolf-eye { fill: #1a1a1a; }
  </style>

  <g class="wolf-main">
    <!-- Tail -->
    <path class="wolf-body wolf-tail" d="M820 280 Q880 260 900 300 Q920 360 900 420 Q880 480 840 500 Q800 510 780 480 Q760 450 780 400 Q790 350 780 320 Q770 300 790 290 Q810 285 820 280"/>
    <path class="wolf-detail" d="M850 320 Q860 360 850 400 M830 350 Q840 380 830 420 M810 380 Q815 410 805 450"/>

    <!-- Back leg rear -->
    <g class="leg-back-right">
      <path class="wolf-body" d="M680 450 Q700 500 710 560 Q720 620 700 680 Q690 720 670 750 Q660 770 680 775 L720 775 Q740 770 730 740 Q740 700 750 650 Q760 580 740 500 Q730 460 700 440"/>
    </g>

    <!-- Body -->
    <path class="wolf-body" d="M200 350 Q280 280 400 260 Q520 250 620 280 Q720 310 780 350 Q820 380 820 420 Q820 480 780 520 Q720 560 620 560 Q500 560 380 540 Q280 520 200 480 Q150 450 150 400 Q150 360 200 350"/>

    <!-- Fur details on body -->
    <path class="wolf-detail" d="M300 320 Q320 340 300 360 M350 310 Q370 330 350 350 M420 300 Q440 320 420 340"/>
    <path class="wolf-detail" d="M500 320 Q520 340 500 360 M550 330 Q570 350 550 370 M600 350 Q620 370 600 390"/>
    <path class="wolf-detail" d="M650 380 Q670 400 650 420 M700 400 Q720 420 700 440"/>

    <!-- Back leg front -->
    <g class="leg-back-left">
      <path class="wolf-body" d="M600 480 Q620 520 630 580 Q640 640 620 700 Q610 740 590 760 Q580 775 600 780 L640 780 Q660 775 650 750 Q660 700 670 640 Q680 560 660 490 Q650 470 620 460"/>
    </g>

    <!-- Front leg rear -->
    <g class="leg-front-right">
      <path class="wolf-body" d="M320 480 Q340 540 350 600 Q360 660 340 720 Q330 760 310 775 Q300 785 320 790 L360 790 Q380 785 370 760 Q380 700 390 640 Q400 560 380 490 Q370 470 340 460"/>
    </g>

    <!-- Chest/neck area -->
    <path class="wolf-body" d="M200 350 Q180 320 200 280 Q240 220 300 200 Q350 190 380 220 Q400 260 380 320 Q360 380 300 400 Q240 410 200 380"/>

    <!-- Chest fur -->
    <path class="wolf-detail" d="M250 350 Q270 380 250 410 M280 340 Q300 370 280 400 M220 360 Q240 390 220 420"/>

    <!-- Front leg front -->
    <g class="leg-front-left">
      <path class="wolf-body" d="M240 420 Q260 480 270 540 Q280 600 260 660 Q250 700 230 730 Q220 750 240 755 L280 755 Q300 750 290 720 Q300 660 310 600 Q320 520 300 450 Q290 420 260 410"/>
    </g>

    <!-- Neck -->
    <path class="wolf-body" d="M200 280 Q180 240 200 180 Q240 120 300 100 Q340 90 360 120 Q380 160 360 220 Q340 280 280 320 Q240 340 200 320"/>

    <!-- Head -->
    <path class="wolf-body" d="M100 200 Q60 180 40 200 Q20 230 30 270 Q50 320 100 340 Q160 360 220 340 Q280 310 300 260 Q320 200 280 150 Q240 100 180 100 Q120 110 100 160 Q90 180 100 200"/>

    <!-- Snout -->
    <path class="wolf-body" d="M30 270 Q10 260 0 280 Q-5 310 20 330 Q50 350 100 340"/>

    <!-- Nose -->
    <ellipse class="wolf-nose" cx="15" cy="295" rx="18" ry="14"/>

    <!-- Nose detail dots -->
    <circle class="wolf-detail" cx="45" cy="310" r="2" fill="#1a1a1a"/>
    <circle class="wolf-detail" cx="55" cy="315" r="2" fill="#1a1a1a"/>
    <circle class="wolf-detail" cx="65" cy="318" r="2" fill="#1a1a1a"/>

    <!-- Mouth line -->
    <path class="wolf-detail wolf-mouth" d="M30 320 Q60 335 100 330"/>

    <!-- Eye -->
    <ellipse class="wolf-eye" cx="160" cy="200" rx="14" ry="18"/>
    <ellipse cx="156" cy="195" rx="5" ry="6" fill="#fff"/>

    <!-- Eyebrow/brow ridge -->
    <path class="wolf-detail" d="M140 175 Q160 165 185 175"/>

    <!-- Ear left -->
    <path class="wolf-body wolf-ear-left" d="M180 100 Q170 50 200 20 Q230 0 250 30 Q260 70 240 110 Q220 130 200 120 Q185 115 180 100"/>
    <path class="wolf-detail" d="M200 40 Q220 50 225 80"/>

    <!-- Ear right -->
    <path class="wolf-body wolf-ear-right" d="M260 90 Q270 50 300 30 Q330 20 340 50 Q345 90 320 120 Q295 140 275 120 Q260 110 260 90"/>
    <path class="wolf-detail" d="M305 45 Q320 60 315 90"/>

    <!-- Face fur details -->
    <path class="wolf-detail" d="M120 250 Q140 270 120 290"/>
    <path class="wolf-detail" d="M200 280 Q220 300 200 320"/>
    <path class="wolf-detail" d="M240 260 Q260 280 240 300"/>
  </g>
</svg>