<svg xmlns="http://www.w3.org/2000/svg" viewBox="0 0 512 340" xml:space="preserve">
<path fill="#FFFFFF" d="M158.5,138.8c-12.8-5.3-25.7-10.4-38.9-14.8c-7.9-2.7-15.6-4.6-23.9-3.9c-2.3,0.2-4.6,0.6-6.7,1.5
	c-2.7,1.1-4.7,3.1-6.1,5.6c-2.2,4-1.7,8.4,0.6,12.5c2.6,4.5,6.2,8.1,10.2,11.5c10.5,8.9,23.3,13.8,36.5,17.4c6.2,1.7,12.5,3,18.8,4.3
	c1.1,0.2,2.3,0.4,3.4,0.7c0.8,0.2,1.3,0.8,1.4,1.6c0.1,0.9-0.4,1.7-1.2,2.1c-1.5,0.7-3,1.3-4.6,1.8c-8.9,2.8-17.9,5.2-27,7.4
	c-7.3,1.8-14.6,3.4-22,4.8c-4.3,0.8-8.6,1.4-12.9,2c-2.3,0.3-4.6,0.5-6.8,0.3c-2.2-0.2-4.3-0.8-6.1-2.1c-1.9-1.3-3.1-3.3-3.5-5.5
	c-0.3-1.6-0.2-3.3,0.2-4.9c0.8-3.1,3.1-5.5,5.9-7.1c4.5-2.6,9.5-3.8,14.6-4.8c9.5-1.9,19-3.5,28.6-4.9c1.6-0.2,3.1-0.5,4.7-0.7
	c1.2-0.2,2-1.3,1.8-2.5c-0.2-1.1-1.2-1.9-2.4-1.8c-5.8,0.6-11.6,1.4-17.3,2.5c-6.8,1.3-13.6,2.9-20.2,5.1c-3.1,1-6.1,2.4-8.8,4.3
	c-2.9,2-5.1,4.9-5.9,8.4c-0.7,3.2-0.1,6.5,1.7,9.3c2.2,3.3,5.6,5.6,9.3,7.1c7.2,2.9,14.9,4.2,22.6,5.4c14.2,2.2,28.5,3.3,42.8,4.3
	c7.1,0.5,14.2,0.9,21.3,1.4c1.1,0.1,2.2,0.1,3.3,0.2c0.7,0,1.3,0.6,1.4,1.3c0.1,0.7-0.4,1.3-1,1.5c-1.2,0.4-2.4,0.7-3.6,1.1
	c-9.6,2.8-19.3,5.2-29.1,7.2c-8.4,1.7-16.8,3.1-25.3,4.2c-4.4,0.6-8.9,1-13.3,1.2c-2.4,0.1-4.8,0-7.1-0.5c-2.2-0.5-4.2-1.5-5.9-3
	c-1.8-1.7-2.9-4-3-6.5c-0.1-2.4,0.7-4.8,2.2-6.7c2.9-3.8,7.3-6.1,11.9-7.4c8.8-2.5,17.8-4.2,26.8-5.5c1.6-0.2,3.3-0.5,4.9-0.7
	c1.1-0.1,1.9-1.2,1.7-2.3c-0.2-1.1-1.2-1.8-2.3-1.7c-5.8,0.6-11.5,1.6-17.2,2.9c-6.3,1.5-12.5,3.3-18.5,5.8c-2.9,1.2-5.6,2.8-7.9,4.9
	c-2.4,2.2-4.1,5.2-4.4,8.5c-0.3,3.3,0.8,6.5,3.1,9c2.7,2.9,6.4,4.7,10.2,5.7c7.4,2,15.1,3.1,22.7,3.8c14.6,1.3,29.3,1.9,43.9,2.4
	c7.5,0.3,14.9,0.5,22.4,0.8c21.8,0.7,43.4-1.2,64.7-5.9c10.4-2.3,20.6-5.5,30.3-9.9c4.8-2.1,9.3-4.6,13.6-7.5c2.2-1.5,4.2-3.2,5.9-5.1
	c1.8-1.9,3.1-4.2,3.7-6.7c1.3-4.8-0.6-9.7-4.2-13.1c-3.7-3.5-8.6-5.3-13.6-6.1c-10.8-1.7-21.7-1.3-32.5-0.1c-5.4,0.6-10.7,1.5-16,2.6
	c-1,0.2-2.1,0.4-3.1,0.7c-0.8,0.2-1.6-0.3-1.8-1.1c-0.2-0.7,0.2-1.5,0.9-1.8c1.5-0.6,3.1-1.1,4.6-1.6c10-3.3,20.3-5.6,30.8-7
	c9.5-1.3,19.2-1.8,28.7-1.3c4.7,0.3,9.4,0.9,13.9,2.1c2.2,0.6,4.3,1.5,6.2,2.7c1.9,1.2,3.5,2.9,4.5,4.9c1.9,3.8,1.7,8.2-0.5,11.8
	c-2.3,3.8-5.9,6.7-9.9,8.9c-8.5,4.6-17.8,7.9-27.3,10.4c-19.3,5.1-39.3,8.3-59.3,9.7c-9.8,0.7-19.7,1.1-29.5,1.2
	c-20.7,0.2-41.4-0.8-62-2.9C164,141,161.2,139.9,158.5,138.8z"/>
<path fill="#FFFFFF" d="M375.6,158.5c-4.8-1.6-9.6-3.1-14.4-4.5c-8.9-2.5-18-4.4-27.2-5.6c-4.6-0.6-9.2-1-13.9-1.2c-2.3-0.1-4.6-0.1-6.9,0.1
	c-2.3,0.3-4.5,0.8-6.6,1.8c-1.9,0.9-3.6,2.4-4.6,4.2c-0.9,1.7-1.2,3.7-0.9,5.6c0.6,3.4,3.2,6.1,6.4,7.6c6.2,2.9,13.1,4.1,19.9,4.9
	c13.7,1.6,27.5,2.5,41.2,3.4c6.8,0.5,13.7,0.9,20.5,1.4c1.1,0.1,2.3,0.2,3.4,0.2c0.7,0,1.3,0.6,1.4,1.3c0.1,0.7-0.4,1.4-1.1,1.5
	c-1.3,0.3-2.6,0.6-4,0.8c-10.2,1.9-20.5,3.3-30.9,4.2c-9.4,0.8-18.8,1.2-28.2,1.1c-4.7,0-9.4-0.2-14.1-0.7c-2.3-0.2-4.6-0.6-6.8-1.3
	c-2.1-0.6-4-1.6-5.4-3c-1.4-1.4-2.2-3.2-2.4-5.2c-0.3-2.2,0.3-4.3,1.5-6.1c2.4-3.5,6.1-5.8,10.2-7.2c7.8-2.7,16-4.4,24.2-5.7
	c1.6-0.3,3.3-0.5,4.9-0.7c1.1-0.2,1.9-1.2,1.7-2.3c-0.2-1.1-1.2-1.9-2.3-1.7c-5.8,0.6-11.6,1.6-17.3,3.1c-6.1,1.6-12,3.8-17.5,6.7
	c-2.7,1.4-5.1,3.2-6.9,5.4c-1.9,2.2-3,5-2.9,7.9c0.1,2.9,1.6,5.6,3.8,7.5c4.3,3.7,9.9,5.3,15.5,6.1c11.3,1.6,22.7,2,34.1,1.8
	c22.5-0.5,44.9-2.3,66.9-6.4c5.3-1.1,10.5-2.5,15.6-4.2c2.5-0.9,4.9-1.9,7.2-3.1c2.3-1.2,4.4-2.7,6.1-4.6c1.6-1.8,2.8-3.9,3.3-6.2
	c0.9-4.2-0.7-8.5-3.8-11.4c-3.2-3-7.5-4.6-11.8-5.3c-9.3-1.5-18.7-1.1-27.9-0.1c-4.6,0.5-9.2,1.3-13.8,2.2c-1,0.2-1.9,0.4-2.9,0.6
	c-0.8,0.2-1.6-0.3-1.8-1.1c-0.2-0.7,0.3-1.5,1-1.8c1.4-0.5,2.9-1,4.3-1.4c9.1-2.8,18.5-4.8,28.1-6c8.6-1.1,17.4-1.5,26-1.1
	c4.2,0.2,8.5,0.8,12.5,1.9c2,0.5,3.9,1.4,5.6,2.5c1.7,1.1,3.2,2.6,4.1,4.4c1.8,3.5,1.5,7.5-0.6,10.8c-2.1,3.4-5.4,6-9.1,7.9
	c-7.7,4.1-16.1,7.1-24.7,9.3C402.2,162.7,388.9,160.6,375.6,158.5z"/>
</svg>